<svg id="visual" viewBox="0 0 900 600" width="900" height="600" xmlns="http://www.w3.org/2000/svg" xmlns:xlink="http://www.w3.org/1999/xlink" version="1.1"><rect x="0" y="0" width="900" height="600" fill="#272727"></rect><path d="M0 292L21.5 297.7C43 303.3 86 314.7 128.8 320.3C171.7 326 214.3 326 257.2 313.5C300 301 343 276 385.8 269.5C428.7 263 471.3 275 514.2 277C557 279 600 271 642.8 265C685.7 259 728.3 255 771.2 258.8C814 262.7 857 274.3 878.5 280.2L900 286L900 601L878.5 601C857 601 814 601 771.2 601C728.3 601 685.7 601 642.8 601C600 601 557 601 514.2 601C471.3 601 428.7 601 385.8 601C343 601 300 601 257.2 601C214.3 601 171.7 601 128.8 601C86 601 43 601 21.5 601L0 601Z" fill="#4d4d4d"></path><path d="M0 312L21.5 318C43 324 86 336 128.8 346.7C171.7 357.3 214.3 366.7 257.2 362.8C300 359 343 342 385.8 346.2C428.7 350.3 471.3 375.7 514.2 387.2C557 398.7 600 396.3 642.8 392C685.7 387.7 728.3 381.3 771.2 378.7C814 376 857 377 878.5 377.5L900 378L900 601L878.5 601C857 601 814 601 771.2 601C728.3 601 685.7 601 642.8 601C600 601 557 601 514.2 601C471.3 601 428.7 601 385.8 601C343 601 300 601 257.2 601C214.3 601 171.7 601 128.8 601C86 601 43 601 21.5 601L0 601Z" fill="#3e3e3e"></path><path d="M0 440L21.5 432.2C43 424.3 86 408.7 128.8 410.3C171.7 412 214.3 431 257.2 429.7C300 428.3 343 406.7 385.8 400.8C428.7 395 471.3 405 514.2 416.7C557 428.3 600 441.7 642.8 442.3C685.7 443 728.3 431 771.2 420.5C814 410 857 401 878.5 396.5L900 392L900 601L878.5 601C857 601 814 601 771.2 601C728.3 601 685.7 601 642.8 601C600 601 557 601 514.2 601C471.3 601 428.7 601 385.8 601C343 601 300 601 257.2 601C214.3 601 171.7 601 128.8 601C86 601 43 601 21.5 601L0 601Z" fill="#2f2f2f"></path><path d="M0 465L21.5 464.5C43 464 86 463 128.8 461.8C171.7 460.7 214.3 459.3 257.2 462.7C300 466 343 474 385.8 476.7C428.7 479.3 471.3 476.7 514.2 469.8C557 463 600 452 642.8 459.5C685.7 467 728.3 493 771.2 504C814 515 857 511 878.5 509L900 507L900 601L878.5 601C857 601 814 601 771.2 601C728.3 601 685.7 601 642.8 601C600 601 557 601 514.2 601C471.3 601 428.7 601 385.8 601C343 601 300 601 257.2 601C214.3 601 171.7 601 128.8 601C86 601 43 601 21.5 601L0 601Z" fill="#212121"></path><path d="M0 585L21.5 576C43 567 86 549 128.8 544C171.7 539 214.3 547 257.2 543C300 539 343 523 385.8 518.8C428.7 514.7 471.3 522.3 514.2 521.8C557 521.3 600 512.7 642.8 517C685.7 521.3 728.3 538.7 771.2 543.5C814 548.3 857 540.7 878.5 536.8L900 533L900 601L878.5 601C857 601 814 601 771.2 601C728.3 601 685.7 601 642.8 601C600 601 557 601 514.2 601C471.3 601 428.7 601 385.8 601C343 601 300 601 257.2 601C214.3 601 171.7 601 128.8 601C86 601 43 601 21.5 601L0 601Z" fill="#141414"></path></svg>