<svg id="visual" viewBox="0 0 1920 1080" width="1920" height="1080" xmlns="http://www.w3.org/2000/svg" xmlns:xlink="http://www.w3.org/1999/xlink" version="1.1"><path d="M0 673L53.3 641.5C106.7 610 213.3 547 320 487C426.7 427 533.3 370 640 383.7C746.7 397.3 853.3 481.7 960 533.8C1066.7 586 1173.3 606 1280 574.8C1386.7 543.7 1493.3 461.3 1600 466.3C1706.7 471.3 1813.3 563.7 1866.7 609.8L1920 656L1920 0L1866.7 0C1813.3 0 1706.7 0 1600 0C1493.3 0 1386.7 0 1280 0C1173.3 0 1066.7 0 960 0C853.3 0 746.7 0 640 0C533.3 0 426.7 0 320 0C213.3 0 106.7 0 53.3 0L0 0Z" fill="#141414" stroke-linecap="round" stroke-linejoin="miter"></path></svg>