<svg id="visual" viewBox="0 0 1920 1080" width="1920" height="1080" xmlns="http://www.w3.org/2000/svg" xmlns:xlink="http://www.w3.org/1999/xlink" version="1.1"><path d="M0 479L64 465.3C128 451.7 256 424.3 384 481.2C512 538 640 679 768 756.8C896 834.7 1024 849.3 1152 810.2C1280 771 1408 678 1536 662.5C1664 647 1792 709 1856 740L1920 771L1920 0L1856 0C1792 0 1664 0 1536 0C1408 0 1280 0 1152 0C1024 0 896 0 768 0C640 0 512 0 384 0C256 0 128 0 64 0L0 0Z" fill="#141414" stroke-linecap="round" stroke-linejoin="miter"></path></svg>