<svg id="visual" viewBox="0 0 1920 1080" width="1920" height="1080" xmlns="http://www.w3.org/2000/svg" xmlns:xlink="http://www.w3.org/1999/xlink" version="1.1"><rect x="0" y="0" width="1920" height="1080" fill="#ccc"></rect><path d="M0 424L45.7 432.3C91.3 440.7 182.7 457.3 274.2 469.8C365.7 482.3 457.3 490.7 548.8 477.5C640.3 464.3 731.7 429.7 823 425.5C914.3 421.3 1005.7 447.7 1097 452.3C1188.3 457 1279.7 440 1371.2 468.8C1462.7 497.7 1554.3 572.3 1645.8 605.5C1737.3 638.7 1828.7 630.3 1874.3 626.2L1920 622L1920 1081L1874.3 1081C1828.7 1081 1737.3 1081 1645.8 1081C1554.3 1081 1462.7 1081 1371.2 1081C1279.7 1081 1188.3 1081 1097 1081C1005.7 1081 914.3 1081 823 1081C731.7 1081 640.3 1081 548.8 1081C457.3 1081 365.7 1081 274.2 1081C182.7 1081 91.3 1081 45.7 1081L0 1081Z" fill="#8f8f8f"></path><path d="M0 613L45.7 598.2C91.3 583.3 182.7 553.7 274.2 555C365.7 556.3 457.3 588.7 548.8 607C640.3 625.3 731.7 629.7 823 620C914.3 610.3 1005.7 586.7 1097 581.8C1188.3 577 1279.7 591 1371.2 611.5C1462.7 632 1554.3 659 1645.8 667.2C1737.3 675.3 1828.7 664.7 1874.3 659.3L1920 654L1920 1081L1874.3 1081C1828.7 1081 1737.3 1081 1645.8 1081C1554.3 1081 1462.7 1081 1371.2 1081C1279.7 1081 1188.3 1081 1097 1081C1005.7 1081 914.3 1081 823 1081C731.7 1081 640.3 1081 548.8 1081C457.3 1081 365.7 1081 274.2 1081C182.7 1081 91.3 1081 45.7 1081L0 1081Z" fill="#6d6d6d"></path><path d="M0 637L45.7 641.2C91.3 645.3 182.7 653.7 274.2 667.7C365.7 681.7 457.3 701.3 548.8 693.5C640.3 685.7 731.7 650.3 823 659C914.3 667.7 1005.7 720.3 1097 748.5C1188.3 776.7 1279.7 780.3 1371.2 777.5C1462.7 774.7 1554.3 765.3 1645.8 741.2C1737.3 717 1828.7 678 1874.3 658.5L1920 639L1920 1081L1874.3 1081C1828.7 1081 1737.3 1081 1645.8 1081C1554.3 1081 1462.7 1081 1371.2 1081C1279.7 1081 1188.3 1081 1097 1081C1005.7 1081 914.3 1081 823 1081C731.7 1081 640.3 1081 548.8 1081C457.3 1081 365.7 1081 274.2 1081C182.7 1081 91.3 1081 45.7 1081L0 1081Z" fill="#4d4d4d"></path><path d="M0 776L45.7 777.7C91.3 779.3 182.7 782.7 274.2 806C365.7 829.3 457.3 872.7 548.8 890.8C640.3 909 731.7 902 823 880C914.3 858 1005.7 821 1097 810.5C1188.3 800 1279.7 816 1371.2 833.5C1462.7 851 1554.3 870 1645.8 857C1737.3 844 1828.7 799 1874.3 776.5L1920 754L1920 1081L1874.3 1081C1828.7 1081 1737.3 1081 1645.8 1081C1554.3 1081 1462.7 1081 1371.2 1081C1279.7 1081 1188.3 1081 1097 1081C1005.7 1081 914.3 1081 823 1081C731.7 1081 640.3 1081 548.8 1081C457.3 1081 365.7 1081 274.2 1081C182.7 1081 91.3 1081 45.7 1081L0 1081Z" fill="#2f2f2f"></path><path d="M0 920L45.7 932C91.3 944 182.7 968 274.2 974.8C365.7 981.7 457.3 971.3 548.8 950.2C640.3 929 731.7 897 823 889.5C914.3 882 1005.7 899 1097 919.5C1188.3 940 1279.7 964 1371.2 972.8C1462.7 981.7 1554.3 975.3 1645.8 971.7C1737.3 968 1828.7 967 1874.3 966.5L1920 966L1920 1081L1874.3 1081C1828.7 1081 1737.3 1081 1645.8 1081C1554.3 1081 1462.7 1081 1371.2 1081C1279.7 1081 1188.3 1081 1097 1081C1005.7 1081 914.3 1081 823 1081C731.7 1081 640.3 1081 548.8 1081C457.3 1081 365.7 1081 274.2 1081C182.7 1081 91.3 1081 45.7 1081L0 1081Z" fill="#141414"></path></svg>